<svg width="50" height="50" viewBox="0 0 50 50" fill="none" xmlns="http://www.w3.org/2000/svg">
<path d="M25 31.25C28.4518 31.25 31.25 28.4518 31.25 25C31.25 21.5482 28.4518 18.75 25 18.75C21.5482 18.75 18.75 21.5482 18.75 25C18.75 28.4518 21.5482 31.25 25 31.25Z" stroke="#3C78E6" stroke-width="3.125" stroke-miterlimit="10" stroke-linecap="round" stroke-linejoin="round"/>
<path d="M4.16663 26.8332V23.1665C4.16663 20.9998 5.93746 19.2082 8.12496 19.2082C11.8958 19.2082 13.4375 16.5415 11.5416 13.2707C10.4583 11.3957 11.1041 8.95816 13 7.87483L16.6041 5.81233C18.25 4.83316 20.375 5.41649 21.3541 7.06233L21.5833 7.45816C23.4583 10.729 26.5416 10.729 28.4375 7.45816L28.6666 7.06233C29.6458 5.41649 31.7708 4.83316 33.4166 5.81233L37.0208 7.87483C38.9166 8.95816 39.5625 11.3957 38.4791 13.2707C36.5833 16.5415 38.125 19.2082 41.8958 19.2082C44.0625 19.2082 45.8541 20.979 45.8541 23.1665V26.8332C45.8541 28.9998 44.0833 30.7915 41.8958 30.7915C38.125 30.7915 36.5833 33.4582 38.4791 36.729C39.5625 38.6248 38.9166 41.0415 37.0208 42.1248L33.4166 44.1873C31.7708 45.1665 29.6458 44.5832 28.6666 42.9373L28.4375 42.5415C26.5625 39.2707 23.4791 39.2707 21.5833 42.5415L21.3541 42.9373C20.375 44.5832 18.25 45.1665 16.6041 44.1873L13 42.1248C11.1041 41.0415 10.4583 38.604 11.5416 36.729C13.4375 33.4582 11.8958 30.7915 8.12496 30.7915C5.93746 30.7915 4.16663 28.9998 4.16663 26.8332Z" stroke="#3C78E6" stroke-width="3.125" stroke-miterlimit="10" stroke-linecap="round" stroke-linejoin="round"/>
</svg>
